<?xml version="1.0" standalone="no"?>
<!DOCTYPE svg PUBLIC "-//W3C//DTD SVG 20010904//EN"
 "http://www.w3.org/TR/2001/REC-SVG-20010904/DTD/svg10.dtd">
<svg version="1.0" xmlns="http://www.w3.org/2000/svg"
 width="225.000000pt" height="225.000000pt" viewBox="0 0 225.000000 225.000000"
 preserveAspectRatio="xMidYMid meet">

<g transform="translate(0.000000,225.000000) scale(0.100000,-0.100000)"
fill="#000000" stroke="none">
<path d="M682 1998 c-16 -16 -15 -48 1 -52 6 -3 24 -7 40 -10 45 -10 102 -71
141 -150 40 -82 45 -116 19 -137 -17 -15 -63 -106 -63 -126 0 -10 68 -13 305
-13 268 0 305 2 305 15 0 21 -38 95 -62 122 -26 28 -20 60 23 149 35 71 93
130 136 140 50 10 54 14 51 35 -5 35 -30 45 -80 30 -61 -18 -131 -94 -176
-189 -19 -43 -37 -79 -38 -81 -2 -2 -24 4 -50 13 -26 9 -75 16 -109 16 -34 0
-83 -7 -109 -16 -26 -9 -48 -15 -50 -13 -1 2 -18 38 -38 79 -43 91 -94 151
-151 179 -49 24 -78 26 -95 9z"/>
<path d="M350 1426 c-16 -20 -13 -27 56 -125 l59 -82 103 -31 103 -32 -3 -85
-3 -85 -93 -20 -93 -19 -70 -90 c-72 -93 -77 -105 -57 -125 22 -22 38 -12 99
66 64 81 85 94 172 107 l47 7 0 -135 0 -136 -57 -7 c-151 -18 -147 -17 -165
-54 -9 -19 -38 -81 -64 -138 -44 -94 -46 -104 -32 -119 9 -9 24 -13 33 -9 9 3
41 57 71 120 60 127 50 119 171 131 61 7 62 6 69 -20 7 -27 7 -27 73 -20 88 8
157 43 220 110 96 101 96 101 99 478 l3 327 -141 0 c-154 0 -187 -8 -232 -56
-33 -35 -48 -74 -48 -120 0 -29 -3 -34 -17 -30 -10 3 -45 14 -78 24 -56 17
-64 23 -121 97 -63 83 -82 96 -104 71z"/>
<path d="M1162 1113 l3 -328 28 -56 c51 -104 190 -207 303 -225 41 -6 42 -6
54 31 l12 37 62 -7 c120 -12 110 -5 170 -131 30 -63 62 -117 71 -120 9 -4 24
0 32 9 15 15 14 21 -11 79 -15 35 -44 97 -65 138 -41 84 -24 75 -183 94 l-58
7 0 136 0 135 47 -7 c87 -13 108 -26 172 -107 61 -78 77 -88 99 -66 20 20 15
32 -57 125 l-70 90 -93 19 -93 20 -3 85 -3 84 103 32 103 32 59 83 c63 88 72
114 44 131 -22 14 -41 -3 -99 -88 -47 -69 -36 -63 -191 -111 -15 -4 -18 1 -18
33 0 50 -26 100 -73 137 l-39 31 -154 3 -155 3 3 -328z"/>
<path d="M1116 673 c-13 -40 -82 -118 -133 -151 -54 -34 -112 -58 -187 -76
l-49 -12 49 -50 c61 -63 128 -102 213 -126 83 -23 149 -23 232 0 82 23 149 61
206 119 46 45 48 63 9 63 -13 0 -59 18 -103 40 -77 38 -152 105 -209 185 -21
30 -21 30 -28 8z"/>
</g>
</svg>
